<?xml version="1.0" encoding="utf-8"?>
<!-- Generator: Adobe Illustrator 23.0.1, SVG Export Plug-In . SVG Version: 6.00 Build 0)  -->
<svg version="1.1" id="Layer_1" xmlns="http://www.w3.org/2000/svg" xmlns:xlink="http://www.w3.org/1999/xlink" x="0px" y="0px"
	 viewBox="0 0 150 90" style="enable-background:new 0 0 150 90;" xml:space="preserve">
<style type="text/css">
	.st0{fill-rule:evenodd;clip-rule:evenodd;fill:#FFFFFF;}
</style>
<g id="Layer1000">
	<path id="path2" class="st0" d="M36.6,46.4c0-0.6,0-1.5,0-1.7c0.3,0,0.6,0,0.7,0.2c0.3,0.2,0.5,0.5,0.5,0.9c0,1-0.7,1.2-0.9,1.3
		v0.2c0.2,0,0.8-0.2,1.2-0.6c0.2-0.3,0.4-0.6,0.4-1c0-0.2-0.1-0.6-0.6-0.8c-0.3-0.1-0.8-0.2-1.4-0.2c-0.3,0-1.1,0-1.3,0v0.1
		c0.1,0,0.5,0,0.6,0.1c0,0.2,0,1.4,0,1.6v0.3c0,0.6,0,2,0,2.3c-0.1,0-0.5,0.1-0.6,0.1v0.1c0.2,0,0.7,0,1,0s0.9,0,1.1,0v-0.1
		c-0.2,0-0.6-0.1-0.7-0.1c0-0.2,0-1.7,0-2.3V46.4L36.6,46.4z M43.1,49.2c1.4,0,2.5-1,2.5-2.6c0-0.6-0.3-1.2-0.7-1.6
		c-0.5-0.4-1-0.5-1.6-0.5c-1.6,0-2.5,1.2-2.5,2.4c0,0.6,0.1,1.1,0.6,1.6C41.9,49.1,42.5,49.2,43.1,49.2L43.1,49.2z M43.4,48.9
		c-1.1,0-1.9-1.1-1.9-2.3c0-1.3,0.9-1.9,1.6-1.9c0.9,0,1.8,1,1.8,2.4C44.8,48.1,44.2,48.9,43.4,48.9z M49.2,46.4c0-0.8,0-1.6,0-1.7
		c0.2,0,0.5-0.1,0.6-0.1v-0.1c-0.1,0-0.6,0-0.9,0c-0.4,0-1,0-1.1,0v0.1c0.1,0,0.5,0.1,0.6,0.1c0,0.2,0,1.4,0,1.7v0.4
		c0,0.6,0,1.8,0,2.1c-0.1,0-0.5,0.1-0.6,0.1v0.1c0.2,0,0.7,0,0.9,0c0.4,0,0.9,0,1.1,0V49c-0.1,0-0.4-0.1-0.6-0.1c0-0.1,0-1.2,0-2.1
		V46.4z M52.2,44.7c0.2,0,0.5,0,0.6,0.1c0,0.2-0.1,3.9-0.2,4.1c-0.1,0-0.3,0.1-0.5,0.1v0.1c0.2,0,0.6,0,0.8,0c0.1,0,0.8,0,0.8,0V49
		c-0.1,0-0.5-0.1-0.6-0.1C53,48.6,53,45.2,53,45.1c0.2,0.3,1.3,1.7,1.3,1.8c0.1,0.2,1.7,2.3,1.9,2.4c0-0.3,0.1-3,0.1-3.3
		c0-0.2,0-1.1,0.1-1.4c0.2,0,0.4-0.1,0.4-0.1v-0.1c-0.1,0-0.6,0-0.7,0s-0.8,0-0.8,0v0.1c0.2,0,0.5,0.1,0.6,0.1
		C56,45.1,56,47.3,56,48c-0.2-0.2-1.1-1.4-1.2-1.6c-0.1-0.1-1.3-1.7-1.4-2c-0.4,0-1,0-1.3,0L52.2,44.7z M60.6,46.7
		c0,0.6,0,1.7,0,2.2c-0.1,0-0.6,0.1-0.7,0.1v0.1c0.2,0,0.8,0,1.1,0s1,0,1.1,0V49c-0.1,0-0.6-0.1-0.7-0.1c0-0.5,0-1.6,0-2.2v-0.3
		c0-0.5,0-1.4,0-1.6c0.6,0,1.3,0.2,1.5,0.3c0,0.2,0,0.4,0,0.7H63c0-0.2,0.1-1.5,0.2-1.7h-0.1c0,0.1-0.1,0.3-0.1,0.4
		c-0.1,0-1.1,0.1-1.9,0.1c-0.8,0-1.8,0-1.8-0.1s0-0.3,0-0.4h-0.1c0,0.5-0.1,1.3-0.1,1.7h0.1c0-0.2,0.1-0.5,0.1-0.6
		c0.2-0.1,0.6-0.3,1.5-0.3c0,0.2,0,1.1,0,1.6L60.6,46.7z M70.4,49.2c1.4,0,2.5-1,2.5-2.6c0-0.6-0.3-1.2-0.7-1.6
		c-0.5-0.4-1-0.5-1.6-0.5c-1.6,0-2.5,1.2-2.5,2.4c0,0.6,0.1,1.1,0.6,1.6C69.1,49.1,69.8,49.2,70.4,49.2L70.4,49.2z M70.6,48.9
		c-1.1,0-1.9-1.1-1.9-2.3c0-1.3,0.9-1.9,1.6-1.9c0.9,0,1.8,1,1.8,2.4C72.1,48.1,71.4,48.9,70.6,48.9L70.6,48.9z M75.8,46.9
		c0,0.7,0,1.8,0,1.9c-0.2,0.1-0.5,0.1-0.6,0.1V49c0.2,0,0.6,0,0.9,0c0.4,0,0.8,0,1.1,0v-0.1c-0.1,0-0.4,0-0.6-0.1
		c0-0.2-0.1-1.3-0.1-1.9v-0.2c0.3,0,1,0,1.2,0.2c0,0.2,0,0.4,0,0.5h0.1c0-0.5,0.1-1.1,0.1-1.5h-0.1c0,0.1-0.1,0.3-0.1,0.4
		c-0.2,0.1-0.9,0.1-1.2,0.1v-0.2c0-0.5,0-1.7,0.1-1.7c0.3,0,1.2,0.1,1.4,0.3c0,0.1,0,0.4,0,0.5l0.1,0.1c0-0.5,0.1-1.3,0.1-1.6L78,44
		c0,0.2-0.1,0.4-0.1,0.5c-0.1,0-1.6,0-1.8,0c-0.2,0-0.8,0-1,0v0.1c0.2,0,0.5,0.1,0.6,0.1c0,0.2,0,1.2,0,1.8L75.8,46.9z M83,44.6
		c0.2,0,0.3,0.1,0.4,0.1c0.3,0.4,1.8,4.3,2,4.6c0.1-0.2,1.9-4.5,2.1-4.6c0.1,0,0.3-0.1,0.3-0.1v-0.1c-0.1,0-0.4,0-0.6,0
		c-0.3,0-0.8,0-0.8,0v0.1c0.2,0,0.4,0.1,0.5,0.1c-0.1,0.7-1.1,3.1-1.3,3.4c-0.1-0.2-1.3-3.2-1.3-3.4c0.1,0,0.4-0.1,0.5-0.1v-0.1
		c-0.1,0-0.6,0-1,0C83.5,44.5,83.2,44.5,83,44.6C83,44.5,83,44.6,83,44.6z M90.8,46.4c0-0.8,0-1.6,0-1.7c0.2,0,0.5-0.1,0.6-0.1v-0.1
		c-0.1,0-0.6,0-0.9,0c-0.4,0-1,0-1.1,0v0.1c0.1,0,0.5,0.1,0.6,0.1c0,0.2,0,1.4,0,1.7v0.4c0,0.6,0,1.8,0,2.1c-0.1,0-0.5,0.1-0.6,0.1
		v0.1c0.2,0,0.7,0,0.9,0c0.4,0,0.9,0,1.1,0V49c-0.1,0-0.4-0.1-0.6-0.1c0-0.1,0-1.2,0-2.1V46.4L90.8,46.4z M94.4,46.8
		c0,0.7,0,1.9,0,2c-0.2,0-0.5,0.1-0.6,0.1V49c0.2,0,0.7,0,0.9,0c0.4,0,1.6,0,1.8,0.1c0,0.1,0,0.2,0,0.4h0.1c0-0.3,0.1-1.3,0.2-1.5
		h-0.1c0,0.2-0.1,0.3-0.1,0.6c-0.3,0.2-0.8,0.2-1.4,0.2c0-0.2,0-1.6,0-2v-0.1c0.5,0,0.9,0,1.1,0.2c0,0.1,0,0.3,0,0.4l0.1,0.1
		c0-0.2,0.1-1.1,0.1-1.2h-0.1c0,0.1,0,0.2-0.1,0.3s-0.7,0.1-1.2,0.1v-0.1c0-0.4,0-1.7,0-1.7c0.3,0,1.2,0.1,1.3,0.3
		c0,0.1,0,0.4,0,0.5h0.1c0-0.2,0.1-1.2,0.1-1.3h-0.1c0,0.1,0,0.2-0.1,0.3c-0.2,0-1.5,0-1.7,0c-0.1,0-0.3,0-0.5,0s-0.4,0-0.5,0v0.2
		c0.1,0,0.5,0.1,0.6,0.1c0,0.2,0,1.2,0,1.8L94.4,46.8L94.4,46.8z M98.7,44.6c0.2,0,0.3,0.1,0.4,0.1c0.3,0.8,1.1,4.1,1.3,4.7
		c0.3-0.8,1.2-3.3,1.4-3.9c0.2,0.5,1.2,3.5,1.4,3.9c0.1-0.2,1.3-4.5,1.5-4.7c0.1,0,0.3-0.1,0.4-0.1v-0.1c-0.2,0-0.4,0-0.8,0
		s-0.6,0-0.8,0v0.1c0.2,0,0.4,0.1,0.5,0.1c0,0.6-0.7,3.1-0.8,3.4l0,0c-0.2-0.5-0.9-2.8-1-3.2c0.1-0.1,0.3-0.1,0.4-0.1v-0.1
		c-0.1,0-0.5,0-0.8,0s-0.6,0-0.8,0v0.1c0.1,0,0.4,0.1,0.6,0.1c-0.1,0.6-0.9,2.9-1,3.1l0,0c-0.1-0.3-0.7-3-0.8-3.3
		c0.1,0,0.4-0.1,0.5-0.1v-0.1c-0.1,0-0.4,0-0.9,0c-0.4,0-0.7,0-0.8,0L98.7,44.6z"/>
	<path id="path4" class="st0" d="M80.1,16.9c0,2.3-1.3,4.1-3.9,5.6c-0.8,0.4-1.2,0.6-1.4,0.6c-0.1,0-0.1,0-0.1-0.1s0.1-0.2,0.1-0.2
		c1.4-0.4,2.5-1.2,3.4-2.3c0.9-1.1,1.4-2.3,1.4-3.5c0-1-0.3-1.9-0.9-2.5s-1.5-1-2.5-1c-1.3,0-2.7,0.4-3.9,1.3
		c-1.3,0.9-2.8,2.4-4.6,4.6c-3.1,3.8-6.1,5.9-8.8,6.2c1.1,0.7,1.6,1.9,1.6,3.6c0,0.8-0.3,2.4-0.8,4.9c-0.3,1.1-0.4,1.9-0.4,2.4
		c0,0.9,0.3,1.7,0.8,2.3s1.1,0.9,2,0.9c0.7,0,1.3-0.3,1.9-0.7c0.1-0.2,0.2-0.2,0.3-0.2s0.1,0,0.1,0.1c0,0.3-0.3,0.5-0.8,0.8
		c-0.6,0.3-1.1,0.4-1.5,0.4c-1.1,0-2.1-0.5-2.9-1.6c-0.8-1.1-1.2-2.4-1.2-3.8c0-1,0.3-2.5,1-4.6c0.3-1.1,0.5-1.9,0.5-2.5
		c0-0.7-0.2-1.3-0.7-1.8c-0.4,0.1-0.8,0.1-1,0.1c-0.8,0-1.3-0.1-1.3-0.4c0-0.2,0.2-0.3,0.7-0.3s1,0.1,1.5,0.3
		c1.2-0.2,2.2-0.7,3.2-1.5c0.9-0.7,2.3-2.1,4.1-4.2c2.1-2.4,3.9-4.1,5.6-5.1c1.6-1,3.3-1.6,4.9-1.6c1.1,0,2.1,0.3,2.8,1.1
		C79.7,14.8,80.1,15.8,80.1,16.9L80.1,16.9z M57.6,18c0,0.3-0.3,0.8-1,1.6c-1,1.2-2,1.8-2.9,1.8c-0.6,0-1.2-0.3-1.6-0.8
		c-0.4-0.5-0.6-1.2-0.6-1.9c0-0.7,0.3-1.6,0.7-2.7c0.6-1.3,0.9-2.2,0.9-2.7c0-0.7-0.3-1.2-0.8-1.6c-0.6-0.4-1.3-0.6-2.2-0.6
		c-2.5,0-4.9,1.2-7.1,3.5s-3.3,4.8-3.3,7.5c0,1.4,0.4,2.5,1.1,3.3c0.7,0.9,1.7,1.3,2.8,1.3c1,0,2.1-0.3,3.2-1
		c1.1-0.7,1.9-1.5,2.6-2.6c0.1-0.1,0.1-0.1,0.1-0.1c0.1,0,0.1,0.1,0.1,0.2c0,0.3-0.4,0.8-1.1,1.5C47,26.2,45.4,27,43.6,27
		c-1.3,0-2.3-0.4-3-1.4c-0.8-0.9-1.2-2.1-1.2-3.6c0-2.8,1.1-5.4,3.4-7.8s4.8-3.6,7.5-3.6c2.4,0,3.6,1.2,3.6,3.6
		c0,0.8-0.4,2.1-1.1,3.8c-0.3,0.6-0.4,1-0.4,1.4c0,1,0.5,1.5,1.4,1.5c0.7,0,1.4-0.3,2.1-1.1c0.6-0.6,1.1-1.3,1.6-2.1
		c0.1-0.1,0.1-0.1,0.1-0.1C57.6,17.9,57.6,17.9,57.6,18z M63.5,15.2c0,0.1-0.1,0.2-0.3,0.3c-1.5,0.7-2.8,1.9-3.9,3.5
		c-1.1,1.6-2.7,4.7-4.9,9.4c-1,2.2-2,3.8-2.9,5s-2.2,2.3-3.8,3.4c-2.6,1.8-5.1,2.7-7.4,2.7c-1.6,0-2.9-0.4-3.9-1.1
		c-1-0.8-1.5-1.7-1.5-2.9c0-0.7,0.2-1.2,0.5-1.7c0.3-0.4,0.8-0.7,1.3-0.7c0.8,0,1.1,0.4,1.1,1.3c0,0.4-0.1,0.8-0.4,1.1
		c-0.3,0.3-0.5,0.4-0.9,0.4c-0.6,0-0.8-0.3-0.8-1c0-0.3-0.1-0.4-0.1-0.4c-0.2,0-0.3,0.3-0.3,1.1c0,1.1,0.4,1.9,1.3,2.6
		c0.9,0.7,2,1,3.5,1c2.5,0,4.8-1,6.8-3.1c1.1-1,1.9-2.1,2.6-3.1c0.7-1,2-3.2,3.8-6.6c2.4-4.4,4.7-7.5,6.8-9.2c0.4-0.3,1-0.8,1.7-1.2
		c0.8-0.4,1.2-0.7,1.4-0.7C63.5,15,63.5,15.1,63.5,15.2L63.5,15.2z M77.9,32.3c0,0.3-0.8,1.5-2.5,3.8c-1.3,1.8-2.4,2.8-3.2,2.8
		c-0.5,0-0.9-0.2-1.3-0.7c-0.3-0.4-0.5-1-0.5-1.7s0.2-1.5,0.6-2.3c-1.1,1.8-2,3-2.6,3.7c-0.6,0.6-1.2,1-1.8,1
		c-0.6,0-1.1-0.3-1.5-0.9c-0.4-0.6-0.6-1.3-0.6-2.2c0-2.5,1.5-4.7,4.6-6.6c1.3-0.9,2.5-1.3,3.3-1.3c0.7,0,1.1,0.4,1.1,1.2
		c0,0.2-0.1,0.5-0.1,0.9l0.9-1.9c0.3,0.1,0.6,0.1,0.9,0.1s0.7,0,1.2-0.1l-3,5.7c-1,2-1.6,3.3-1.6,3.9c0,0.6,0.2,0.9,0.7,0.9
		c0.4,0,1.2-0.6,2.2-1.8s2-2.7,3-4.4C77.7,32.3,77.8,32.3,77.9,32.3C77.9,32.2,77.9,32.3,77.9,32.3z M73.3,29.1c0-0.6-0.3-1-0.8-1
		c-1.1,0-2.4,1.2-4.1,3.5c-1.7,2.4-2.6,4.2-2.6,5.7c0,0.9,0.3,1.3,1,1.3c0.8,0,2.1-1.5,4.1-4.4C72.5,31.7,73.3,30,73.3,29.1z
		 M97,32.4c0,0-0.1,0.1-0.2,0.3l-0.7,1.1c-2.1,3.4-3.7,5.1-4.7,5.1c-0.5,0-1-0.2-1.3-0.7c-0.3-0.4-0.5-1-0.5-1.7s0.2-1.5,0.6-2.4
		c0.1-0.2,0.5-0.9,1.3-2.1c0.9-1.6,1.4-2.6,1.4-3c0-0.5-0.2-0.8-0.7-0.8c-1.5,0-4.1,3.5-7.7,10.5c-0.2-0.1-0.5-0.1-0.9-0.1
		c-0.5,0-0.9,0-1.2,0.1l2.4-4.4c1.6-2.9,2.4-4.6,2.4-5.3c0-0.6-0.2-0.9-0.6-0.9c-0.6,0-1.6,1-3.1,3.1c-1.4,2.1-2.8,4.5-4.3,7.5
		c-0.3-0.1-0.6-0.1-1-0.1s-0.8,0-1.2,0.1l2.5-4.4c1.7-3,2.5-4.9,2.5-5.6c0-0.4-0.1-0.6-0.4-0.6c-0.6,0-1.7,1.4-3.5,4.2
		c-0.1,0.2-0.2,0.3-0.3,0.3c-0.1,0-0.1-0.1-0.1-0.1c0-0.1,0.5-0.9,1.6-2.4c1-1.5,1.8-2.2,2.4-2.2c0.4,0,0.7,0.2,0.9,0.6
		c0.3,0.4,0.4,0.9,0.4,1.4c0,0.8-0.3,1.8-1,3.1c2.1-3.4,3.6-5.1,4.6-5.1c0.5,0,0.9,0.2,1.2,0.7c0.3,0.4,0.5,1,0.5,1.7
		S88,32,87.4,33.1c2.2-3.4,3.8-5.1,4.9-5.1c0.5,0,0.9,0.3,1.3,0.7c0.3,0.5,0.5,1,0.5,1.7c0,0.8-0.3,1.7-0.8,2.8c0,0-0.5,0.9-1.5,2.5
		c-0.6,0.9-0.8,1.7-0.8,2.1c0,0.5,0.2,0.8,0.7,0.8c0.9,0,2.3-1.6,4.4-4.9l0.5-0.8L97,32.4C97,32.4,97,32.3,97,32.4
		C96.9,32.3,97,32.3,97,32.4L97,32.4z M109,32.3c0,0.3-0.8,1.5-2.5,3.8c-1.3,1.8-2.4,2.8-3.2,2.8c-0.5,0-0.9-0.2-1.3-0.7
		c-0.3-0.4-0.5-1-0.5-1.7s0.2-1.5,0.6-2.3c-1.1,1.8-2,3-2.6,3.7c-0.6,0.6-1.2,1-1.8,1c-0.6,0-1.1-0.3-1.5-0.9
		c-0.4-0.6-0.6-1.3-0.6-2.2c0-2.5,1.5-4.7,4.6-6.6c1.3-0.9,2.5-1.3,3.3-1.3c0.7,0,1.1,0.4,1.1,1.2c0,0.2-0.1,0.5-0.1,0.9l0.9-1.9
		c0.3,0.1,0.6,0.1,0.9,0.1s0.7,0,1.2-0.1l-3,5.7c-1,2-1.6,3.3-1.6,3.9c0,0.6,0.2,0.9,0.7,0.9c0.4,0,1.2-0.6,2.2-1.8s2-2.7,3-4.4
		C108.8,32.3,108.9,32.3,109,32.3C109,32.2,109,32.3,109,32.3L109,32.3z M104.3,29.1c0-0.6-0.3-1-0.8-1c-1.1,0-2.4,1.2-4.1,3.5
		c-1.7,2.4-2.6,4.2-2.6,5.7c0,0.9,0.3,1.3,1,1.3c0.8,0,2.1-1.5,4.1-4.4C103.6,31.7,104.3,30,104.3,29.1z M118.8,32.4
		c0,0.1-0.3,0.6-1,1.4c-0.9,1.1-1.7,1.6-2.5,1.6c-0.9,0-1.3-0.6-1.3-1.7c0-0.3,0.1-0.8,0.2-1.4c-0.7,0.7-1.3,1.4-1.8,2.1
		c-0.4,0.7-1.2,2.1-2.3,4.3c-0.6-0.1-0.9-0.1-1.1-0.1c-0.1,0-0.4,0-1,0.1l2.8-5.2c1.4-2.6,2.1-4.2,2.1-4.8c0-0.3-0.1-0.5-0.4-0.5
		c-0.6,0-1.8,1.4-3.4,4.2c-0.1,0.2-0.2,0.3-0.3,0.3c-0.1,0-0.1-0.1-0.1-0.1c0-0.1,0-0.1,0.1-0.2l0.3-0.5c1.8-2.7,2.9-4,3.5-4
		c0.9,0,1.4,0.7,1.4,2c0,1-0.5,2.3-1.4,4c0.6-0.8,1.1-1.4,1.7-1.9c0.4-1.1,1-2.1,1.6-2.9s1.2-1.2,1.7-1.2c0.4,0,0.5,0.2,0.5,0.5
		c0,0.6-0.8,1.5-2.4,2.7c-0.3,0.2-0.6,0.4-1.1,0.8l-0.2,0.2c-0.2,0.6-0.3,1.1-0.3,1.5c0,1.1,0.4,1.6,1.1,1.6c0.9,0,1.9-0.8,2.9-2.5
		c0.2-0.3,0.4-0.4,0.4-0.4C118.8,32.3,118.8,32.3,118.8,32.4L118.8,32.4z M124.4,24.3c0,0.4-0.2,0.9-0.5,1.3s-0.7,0.6-1.1,0.6
		c-0.5,0-0.8-0.3-0.8-0.9c0-0.4,0.2-0.9,0.5-1.2c0.4-0.4,0.7-0.6,1.1-0.6C124.2,23.5,124.4,23.8,124.4,24.3L124.4,24.3z M124.6,32.3
		c0,0-0.1,0.2-0.2,0.3l-0.7,1.1c-2.1,3.4-3.8,5.1-4.9,5.1c-0.5,0-1-0.2-1.3-0.6c-0.4-0.4-0.5-1-0.5-1.6c0-0.8,0.4-1.9,1.2-3.4
		l2.7-5.1c0.4,0.1,0.6,0.1,0.8,0.1c0.3,0,0.8,0,1.3-0.1l-3.9,7.2c-0.6,1-0.8,1.9-0.8,2.4c0,0.6,0.3,0.9,0.8,0.9c1,0,2.8-2.1,5.3-6.2
		c0.1-0.1,0.1-0.2,0.2-0.2C124.6,32.2,124.6,32.3,124.6,32.3z M130.5,24.3c0,0.4-0.2,0.9-0.5,1.2c-0.3,0.4-0.7,0.6-1.1,0.6
		c-0.5,0-0.7-0.3-0.7-0.8c0-0.4,0.2-0.8,0.5-1.2c0.3-0.4,0.7-0.6,1.1-0.6C130.2,23.5,130.5,23.8,130.5,24.3z M130,32.3
		c0,0.2-0.6,1.1-1.9,2.7c-1.3,1.7-3.1,3.2-5.3,4.6l-0.9,1.7c-1.8,3.4-3.5,5.9-5.2,7.6c-1.8,1.7-3.4,2.5-4.7,2.5
		c-1.2,0-1.7-0.6-1.7-1.8c0-1.5,0.9-3,2.7-4.6c1-0.9,1.8-1.5,2.5-1.9c1-0.7,2.6-1.5,4.8-2.6l0.3-0.1l3-6c0.8-1.7,1.9-3.7,3.2-6.3
		c0.3,0.1,0.6,0.1,0.8,0.1c0.3,0,0.7,0,1.3-0.1c-0.9,1.7-2.3,4.4-4.1,8l-1.6,3.3c1.5-0.9,2.7-1.9,3.6-2.8c0.9-0.9,1.9-2.2,3-3.8
		C129.7,32.5,129.8,32.4,130,32.3L130,32.3L130,32.3z M120.2,40.8c-3.2,1.9-5.3,3.2-6.2,3.8c-2.4,1.9-3.6,3.6-3.6,5.1
		c0,0.4,0.1,0.8,0.4,1c0.3,0.3,0.6,0.4,1,0.4c1.2,0,2.4-0.8,3.5-2.3c1-1.3,2.5-3.8,4.5-7.8C120,41.2,120.1,41.1,120.2,40.8
		L120.2,40.8z M141.9,32.3c0,0.3-0.8,1.5-2.5,3.8c-1.3,1.8-2.4,2.8-3.2,2.8c-0.5,0-0.9-0.2-1.3-0.7c-0.3-0.4-0.5-1-0.5-1.7
		s0.2-1.5,0.6-2.3c-1.1,1.8-2,3-2.6,3.7c-0.6,0.6-1.2,1-1.8,1s-1.1-0.3-1.5-0.9c-0.4-0.6-0.6-1.3-0.6-2.2c0-2.5,1.5-4.7,4.6-6.6
		c1.3-0.9,2.5-1.3,3.3-1.3c0.7,0,1.1,0.4,1.1,1.2c0,0.2-0.1,0.5-0.1,0.9l0.9-1.9c0.3,0.1,0.6,0.1,0.9,0.1c0.3,0,0.7,0,1.2-0.1
		l-3,5.6c-1,2-1.6,3.3-1.6,3.9c0,0.6,0.2,0.9,0.7,0.9s1.2-0.6,2.2-1.8s2-2.7,3-4.4c0.1-0.1,0.1-0.2,0.2-0.2
		C141.9,32.2,141.9,32.3,141.9,32.3L141.9,32.3z M137.3,29.1c0-0.6-0.3-1-0.8-1c-1.1,0-2.4,1.2-4.1,3.5c-1.7,2.4-2.6,4.2-2.6,5.7
		c0,0.9,0.3,1.3,1,1.3c0.8,0,2.1-1.5,4.1-4.4C136.5,31.7,137.3,30,137.3,29.1z"/>
	<path id="path6" class="st0" d="M97.8,9.7c0,0.4-0.3,0.8-0.8,1.3c0.4,0.8,0.7,1.5,0.7,2.1c0,0.2,0,0.2-0.1,0.2s-0.1-0.1-0.1-0.3
		c0-0.6-0.2-1.3-0.6-1.9c-0.8,0.7-1.9,1.3-3.3,1.8s-2.6,0.8-3.7,0.8c-0.1,0-0.3,0-0.4,0c-0.9,1.4-1.3,2.8-1.3,4.1
		c0,0.9,0.3,1.6,0.7,2.1c0.5,0.5,1.1,0.8,2,0.8c1.6,0,3-0.9,4.2-2.6c0.8-1,1.1-2,1.1-3c0-0.5-0.1-0.9-0.4-1.2s-0.6-0.4-1-0.4
		c-0.7,0-1.5,0.4-2.2,1.2c-0.8,0.8-1.2,1.6-1.2,2.3c0,0.1,0,0.1,0.1,0.1s0.1,0,0.1,0c0.1-0.2,0.3-0.2,0.4-0.2c0.3,0,0.4,0.2,0.4,0.5
		c0,0.5-0.2,0.7-0.6,0.7s-0.6-0.3-0.6-0.8c0-0.9,0.4-1.8,1.2-2.7c0.8-0.9,1.6-1.3,2.5-1.3c1.1,0,1.6,0.7,1.6,2
		c0,1.4-0.6,2.6-1.8,3.8c-1.2,1.1-2.5,1.7-3.9,1.7c-1,0-1.8-0.4-2.5-1.1c-0.7-0.8-1-1.7-1-2.8c0-1.1,0.3-2.2,1-3.3
		c-2.4-0.5-3.6-1.6-3.6-3.3c0-1,0.4-1.8,1.3-2.5s2-1,3.3-1c1.9,0,3.8,0.7,5.7,2.1c0.3-0.1,0.7-0.1,1-0.1C97.2,8.8,97.8,9.1,97.8,9.7
		L97.8,9.7z M97.6,9.7c0-0.5-0.4-0.8-1.3-0.8c-0.3,0-0.6,0-1,0.1c0.7,0.5,1.2,1.1,1.6,1.8C97.4,10.5,97.6,10,97.6,9.7L97.6,9.7z
		 M96.8,11c-0.4-0.7-1-1.3-1.7-1.9c-1,0.3-2.1,0.9-3,1.7c-1,0.8-1.8,1.7-2.5,2.7c1.2,0,2.5-0.3,3.9-0.7C94.9,12.3,96,11.7,96.8,11z
		 M94.9,8.9c-1.7-1.1-3.5-1.7-5.4-1.7c-1.2,0-2.2,0.3-3.1,1c-1,0.6-1.4,1.4-1.4,2.2c0,1.5,1.1,2.5,3.4,3C89.8,11.2,92,9.7,94.9,8.9
		L94.9,8.9z M102.8,17.3c0,0.1-0.4,0.8-1.2,1.8c-0.7,0.9-1.2,1.4-1.6,1.4c-0.3,0-0.5-0.1-0.6-0.3c-0.2-0.2-0.3-0.5-0.3-0.8
		s0.1-0.7,0.3-1.1c-0.6,0.9-1,1.5-1.3,1.8s-0.6,0.5-0.9,0.5s-0.5-0.2-0.8-0.4c-0.2-0.3-0.3-0.7-0.3-1.1c0-1.2,0.8-2.3,2.3-3.2
		c0.7-0.4,1.2-0.6,1.6-0.6c0.3,0,0.5,0.2,0.5,0.6c0,0.1,0,0.3-0.1,0.4l0.4-0.9c0.2,0,0.3,0.1,0.4,0.1s0.3,0,0.6-0.1l-1.5,2.8
		c-0.5,1-0.8,1.6-0.8,1.9s0.1,0.4,0.3,0.4c0.2,0,0.6-0.3,1.1-0.9s1-1.3,1.5-2.2c0-0.1,0.1-0.1,0.1-0.1
		C102.8,17.2,102.8,17.3,102.8,17.3L102.8,17.3z M100.5,15.7c0-0.3-0.1-0.5-0.4-0.5c-0.5,0-1.2,0.6-2,1.7s-1.3,2.1-1.3,2.8
		c0,0.4,0.2,0.6,0.5,0.6c0.4,0,1.1-0.7,2-2.2C100.1,17,100.5,16.2,100.5,15.7L100.5,15.7z M108.5,10.5c0,0.6-0.4,1.3-1.1,2.1
		c-0.7,0.9-1.6,1.7-2.8,2.5h1.5l-0.1,0.1h-1.5l-0.7,1.5c-0.8,1.9-1.6,3.3-2.1,4.2c-0.6,1-1.3,1.8-2.1,2.5c-1.1,1-2.1,1.5-3,1.5
		c-0.4,0-0.6-0.1-0.6-0.2s0-0.1,0.1-0.1s0.1,0,0.1,0c0.2,0.1,0.4,0.1,0.6,0.1c0.8,0,1.5-0.4,2.3-1.1c0.5-0.5,0.9-1,1.2-1.7
		c0.3-0.5,1-1.9,2.1-4.2l1.3-2.7h-0.9l0.1-0.1h0.9c0.7-1.4,1.5-2.6,2.4-3.6s1.5-1.5,2-1.5C108.4,10,108.5,10.2,108.5,10.5
		L108.5,10.5z M108.4,10.5c0-0.2-0.1-0.3-0.3-0.3c-0.4,0-1,0.5-1.7,1.7c-0.4,0.5-0.9,1.6-1.6,3.1c0.9-0.7,1.8-1.6,2.5-2.5
		C108,11.5,108.4,10.9,108.4,10.5L108.4,10.5z M110.8,10.5c0,0.6-0.4,1.3-1.1,2.1c-0.7,0.9-1.6,1.7-2.8,2.5h1.5l-0.1,0.1h-1.5
		l-0.7,1.5c-0.8,1.9-1.6,3.3-2.1,4.2c-0.6,1-1.3,1.8-2.1,2.5c-1.1,1-2.1,1.5-3,1.5c-0.4,0-0.6-0.1-0.6-0.2s0-0.1,0.1-0.1
		s0.1,0,0.1,0c0.2,0.1,0.4,0.1,0.6,0.1c0.8,0,1.5-0.4,2.3-1.1c0.5-0.5,0.9-1,1.2-1.7c0.3-0.5,1-1.9,2.1-4.2L106,15h-0.9l0.1-0.1h0.9
		c0.7-1.4,1.5-2.6,2.4-3.6s1.5-1.5,2-1.5C110.7,10,110.8,10.2,110.8,10.5L110.8,10.5z M110.7,10.5c0-0.2-0.1-0.3-0.3-0.3
		c-0.4,0-1,0.5-1.7,1.7c-0.4,0.5-0.9,1.6-1.6,3.1c0.9-0.7,1.8-1.6,2.5-2.5C110.3,11.5,110.7,10.9,110.7,10.5L110.7,10.5z
		 M111.6,17.3c0,0-0.1,0.1-0.1,0.3l-0.4,0.5c-1.1,1.6-2.1,2.4-3,2.4c-0.4,0-0.7-0.2-1-0.5s-0.4-0.7-0.4-1.2c0-1.1,0.7-2.2,2.1-3
		c0.7-0.4,1.3-0.7,1.8-0.7c0.2,0,0.4,0.1,0.5,0.2c0.1,0.1,0.2,0.3,0.2,0.5c0,0.4-0.3,0.9-0.8,1.2s-1.4,0.6-2.6,0.9
		c-0.4,0.7-0.6,1.2-0.6,1.7s0.3,0.8,0.8,0.8c0.9,0,2-1,3.2-2.9C111.5,17.3,111.5,17.3,111.6,17.3L111.6,17.3L111.6,17.3z
		 M110.9,15.5c0-0.2-0.1-0.3-0.3-0.3c-0.3,0-0.7,0.2-1.2,0.7s-0.9,1.1-1.4,1.8c0.8-0.2,1.5-0.6,2-1
		C110.6,16.3,110.9,15.9,110.9,15.5L110.9,15.5z"/>
	<path id="path8" class="st0" d="M50.4,80.1c0.1-2.9,0-0.8-0.8-3.2c-1,0-0.7,0.1-1.5,0.1l-1-2.8l-3.6,1.9c-0.8-1.2-0.9,0.1-1-2
		c-0.1-0.9,0.1-1.7-0.3-2.7c-1.7,0-0.2,0.3-1.8,0.8l-0.3-0.5c0-0.1-0.1-0.2-0.1-0.3c0-0.1-0.1-0.2-0.1-0.3c-0.9-2,0.5,0.6-0.3-1
		l-2-0.1c-0.1,0.1-0.1,0.3-0.2,0.3c-0.1-0.8,0,1.7-1.8,1.4c-1.7-0.3-2.4-1-3.1-2c-1-1.3,0.2,0.1-0.3-0.4c-0.4-0.4-0.9-0.8-1.1-1
		C31,68.2,31,68.2,31,68.1c-0.6-0.7,0-0.7-1.8-1.9c-0.3-1.7,0.7-1.3-0.4-2.4c-0.5-0.5-3-0.2-2.3-3c0.4-1.6,0.3-0.7,0.7-1
		c0.9-0.7-0.5,0.3,0.4-0.3c0.6-0.4,0.1,0.4,0.6-0.4c-0.4-1.4-0.4-0.3-1.2-1.1c-0.4-0.4,0.2,0-0.5-0.7c-0.5-0.5-0.4-0.3-1.2-0.6
		l0.2-1.1c0-1.2-0.4-1.8-0.7-2.9c-1.2-0.6-0.3,0.1-1-1.7c-0.7,0.6-0.6,1.2-1.4,1c-0.6-1.1-0.1-1.6,0.5-3.1c-1.4,0-1.4,0.4-2.5,0.3
		c-0.3-0.7-1-2.7-1.1-3.5c-0.1-1,0.6-0.7,0.4-1.7c-0.2-1.4-0.4-0.4-1.3-0.3c0.3-2,0.3,0.4,1.2-3.8c0.5-2,0.2,0.6,0.5-1.7
		c-0.3-0.5-0.1-0.1-0.5-0.5L18.9,37c0,0-0.1-0.1-0.2-0.1c0.1-2.8,1.3-7.1,2.1-9.3c0.4-2.7-4.3-2.8-6.5-2.6l-1.4,2.8
		c-0.5,0.8,0.2-0.7-0.4,0.7c-0.8,1.9,0,1.5-3.3,4.5l0.6,1.2l0.1,0.1h0.2c-0.9,2-1,9.1-1.1,12l-1.3,1.2c0,0.1,0.1,0.3,0.1,0.2L8,48.1
		c0.4,1.2-0.1,1,0.7,1.3c0.3,0.1,0.6,0.1,0.9,0c-0.5,2.2,0.3,5.1,1,7.3c1.7,5.6,0,1,2.4,6.5l0.8,2.4c0.7,2,1,0.4,4.1,5.3l0.6,0.8
		c1.8,2,2,0.6,3.1,1c0.5,0.4,0.6,1.1,1.9,1.9c1.5,0.9,1.9,0.3,2.9,1.7c0.2,0.2,0.2,0.6,1,1.1c1.2,0.7,2.2,0.3,3.1,1l0.6,1.1
		c0,0.1,0.1,0.2,0.1,0.3c0,0.1,0,0.2,0.1,0.3c2-0.1,1.4-0.6,5.3,0.8c2.4,0.9,4.4,0.6,6.8,0.8c0.1,1.3-0.4,1.1,0.4,2.5
		c0.6,0.1,1.6-0.2,2.3-0.6c1.8-0.9,0.9-0.4,1.3-2.5C48.8,80.9,49.6,81,50.4,80.1L50.4,80.1z"/>
	<path id="path10" class="st0" d="M20.8,27.7c1.1-1.4,1-1.9,1.7-2.9l1.1-1.7c0.4-0.9-0.1-0.4,0.6-1.1l0.9-0.7c0.1,0,0.1-0.1,0.2-0.2
		c1.8-1.6-0.8,0.4,0.5-0.5c-0.2-0.8-0.8,0.7,1.1,0.3c0.3-1.7-0.6-0.2,0.1-2c0.6-1.7,0.6-0.5,1.1-1c0,0,0.6-1.3,1-1.7
		c0.6-0.7,1.1,0,1.5,0.3c0.5-1.9,0.9-1.9,2.1-2.6c2.7-1.7,1.3,0.3,3.7-1.8c1.3-1.1,1.5-0.5,3.9-1.2c0.4-0.1,1.5-0.1,2.2-0.2
		c-0.2-2.4,0.1-2.4,1.1-4.8C42,5.4,42,5.5,40.5,5.8c-1.9,0.4-2.5-0.1-5.8,0.9c-2.3,0.7-2.1,0.2-2.9,0.4l-5.2,3.2
		c-1.3,0.6,1-0.4-0.5,0.2c-0.7,0.2,0.8-0.7-0.4,0.2c-1.1,0.8-0.9,2.5-2.7,1.2l-3,3.3c-1.6,1.5,0.6,3.3-3,3.9c-0.6,1.9-0.4,3.3-2.6,6
		C16.5,24.9,21.2,25.2,20.8,27.7L20.8,27.7z"/>
	<path id="path12" class="st0" d="M65.7,65.2c-0.5,0.9-0.4,1.1-1.3,1.2c-0.8,1.5-0.3,1-2,0.7L62,69.5c0.5-0.4,0.4,0.1,1-1.7
		c0.4,1.8-1.4,2.9-2.4,3.3c-2.2,1.1-2.7,2.4-7,4.2c-2.6,1.1-1.6,1.4-4.3,0.2c-0.3,0.2-0.4,0.8-0.5,1c0.7,0.7,0.9-0.8,0.6,0.9
		c0.6,0.7,0.3,0.6,0.3,1.2c0,0.5,0,1,0.1,1.6c1,0.1,0.7,0.1,2-0.7c1.9-1.1,3-0.7,5.9-2.9c2.4-1.8,0.7,0.7,5.6-3.6
		c4.2-3.6,1.6-1.2,4.8-4.8c0.5-0.6,1.1-1.2,1.6-1.8c3.5-3.9,1.5-4.1,2.6-7.9c0.4-1.3,0.8-1.2,1.1-2.6c0.3-1.3,0.3-2.2-0.4-2.7
		c-0.8,0.2-0.7-0.4-1.8,3c-1.1,3.5-3,5.1-4.6,7.8L65.7,65.2z"/>
	<path id="path14" class="st0" d="M43.6,6.1c-1,2.4-1.3,2.4-1.1,4.8c1.9-1.5,2.3-1,3.5-0.9c1.8,0.1,3-0.2,3.2-2.2
		c-1.3-1.1-1.2,0-2.8-0.9C45.4,6.5,45,5.4,43.6,6.1z"/>
</g>
</svg>
